<?xml version="1.0"?>
<svg xmlns="http://www.w3.org/2000/svg" viewBox="0 0 64 64" width="512" height="512"><path d="m23.48875 46.14813-3.84428.60156a6.01735 6.01735 0 0 1 3.03329 5.25037c0 .16071-.01141.31848-.02354.476a2.0629 2.0629 0 0 0 2.05163 1.524 1.89939 1.89939 0 0 0 1.88826-2 2.29528 2.29528 0 0 0 2.66022 1.97369 2.04247 2.04247 0 0 0 1.74567-1.9992 5.86845 5.86845 0 0 0 -5.37485-5.96041 9.05317 9.05317 0 0 0 -2.1364.13399z" fill="#c5d4ef"/><path d="m10.92872 52.00006a6.01486 6.01486 0 0 1 3.12013-5.29834l-3.5376-.55359a9.05226 9.05226 0 0 0 -2.13643-.134 5.8685 5.8685 0 0 0 -5.37482 5.96042 2.04247 2.04247 0 0 0 1.74567 1.9992 1.946 1.946 0 0 0 2.26671-1.97369 2.25468 2.25468 0 0 0 2.28177 2 2.144 2.144 0 0 0 1.74322-.8623 6.14744 6.14744 0 0 1 -.10865-1.1377z" fill="#c5d4ef"/><path d="m29.25433 53.398a2.29527 2.29527 0 0 1 -2.66021-1.97369 1.89941 1.89941 0 0 1 -1.88825 2 2.06289 2.06289 0 0 1 -2.05163-1.52405c.01208-.15747.02349-.31525.02349-.47595a6.028 6.028 0 0 0 -1.92157-4.42431l-1.11169.17395a6.01736 6.01736 0 0 1 3.03326 5.25037c0 .1607-.01141.31848-.02349.47595a2.06289 2.06289 0 0 0 2.05163 1.52405 1.89941 1.89941 0 0 0 1.88825-2 2.29527 2.29527 0 0 0 2.66021 1.97368 2.04247 2.04247 0 0 0 1.74567-1.9992 6.19284 6.19284 0 0 0 -.03516-.63672 2.04833 2.04833 0 0 1 -1.71051 1.63592z" fill="#aac9f7"/><path d="m9.29413 53.42432a2.25469 2.25469 0 0 1 -2.28174-2 1.946 1.946 0 0 1 -2.26672 1.97368 2.04833 2.04833 0 0 1 -1.71051-1.63593 6.19284 6.19284 0 0 0 -.03516.63673 2.04247 2.04247 0 0 0 1.74567 1.9992 1.946 1.946 0 0 0 2.26672-1.97369 2.25469 2.25469 0 0 0 2.28174 2 2.1439 2.1439 0 0 0 1.74322-.86231 6.26968 6.26968 0 0 1 -.09674-.89581 2.142 2.142 0 0 1 -1.64648.75813z" fill="#aac9f7"/><circle cx="17" cy="52" fill="#ffd700" r="7"/><path d="m54.48875 14.14813-3.84428.60156a6.01735 6.01735 0 0 1 3.03329 5.25037c0 .16071-.01141.31848-.02354.47595a2.0629 2.0629 0 0 0 2.05163 1.52405 1.89939 1.89939 0 0 0 1.88826-2 2.29528 2.29528 0 0 0 2.66022 1.97369 2.04247 2.04247 0 0 0 1.74567-1.9992 5.86845 5.86845 0 0 0 -5.37485-5.96041 9.05317 9.05317 0 0 0 -2.1364.13399z" fill="#c5d4ef"/><path d="m41.92872 20.00006a6.01486 6.01486 0 0 1 3.12013-5.29834l-3.5376-.55359a9.05226 9.05226 0 0 0 -2.13643-.134 5.8685 5.8685 0 0 0 -5.37482 5.96042 2.04247 2.04247 0 0 0 1.74567 1.9992 1.946 1.946 0 0 0 2.26671-1.97369 2.25468 2.25468 0 0 0 2.28177 2 2.144 2.144 0 0 0 1.74322-.8623 6.14744 6.14744 0 0 1 -.10865-1.1377z" fill="#c5d4ef"/><path d="m60.25433 20.97369a2.29527 2.29527 0 0 1 -2.66021-1.97369 1.8994 1.8994 0 0 1 -1.88825 2 2.06289 2.06289 0 0 1 -2.05163-1.524c.01208-.15747.02349-.31524.02349-.476a6.028 6.028 0 0 0 -1.92157-4.42432l-1.11169.17395a6.01736 6.01736 0 0 1 3.03326 5.25037c0 .16071-.01141.31848-.02349.476a2.06289 2.06289 0 0 0 2.05163 1.524 1.8994 1.8994 0 0 0 1.88825-2 2.29527 2.29527 0 0 0 2.66021 1.97369 2.04246 2.04246 0 0 0 1.74567-1.9992 6.19253 6.19253 0 0 0 -.03516-.63672 2.04834 2.04834 0 0 1 -1.71051 1.63592z" fill="#aac9f7"/><path d="m40.29413 21a2.25468 2.25468 0 0 1 -2.28174-2 1.946 1.946 0 0 1 -2.26672 1.97369 2.04834 2.04834 0 0 1 -1.71051-1.63592 6.19253 6.19253 0 0 0 -.03516.63672 2.04246 2.04246 0 0 0 1.74567 1.9992 1.946 1.946 0 0 0 2.26672-1.97369 2.25468 2.25468 0 0 0 2.28174 2 2.14392 2.14392 0 0 0 1.74322-.8623 6.26982 6.26982 0 0 1 -.09674-.89582 2.142 2.142 0 0 1 -1.64648.75812z" fill="#aac9f7"/><circle cx="48" cy="19.00006" fill="#ce6f2e" r="7"/><path d="m10.92872 9.00006a6.01486 6.01486 0 0 1 3.12013-5.29834l-3.5376-.55359a9.05226 9.05226 0 0 0 -2.13643-.134 5.8685 5.8685 0 0 0 -5.37482 5.96042 2.04247 2.04247 0 0 0 1.74567 1.9992 1.946 1.946 0 0 0 2.26671-1.97369 2.25468 2.25468 0 0 0 2.28177 2 2.144 2.144 0 0 0 1.74322-.8623 6.14744 6.14744 0 0 1 -.10865-1.1377z" fill="#c5d4ef"/><path d="m23.48875 3.14813-3.84428.60156a6.01735 6.01735 0 0 1 3.03329 5.25037c0 .16071-.01141.31848-.02354.476a2.0629 2.0629 0 0 0 2.05163 1.524 1.89939 1.89939 0 0 0 1.88826-2 2.29528 2.29528 0 0 0 2.66022 1.97369 2.04247 2.04247 0 0 0 1.74567-1.9992 5.86845 5.86845 0 0 0 -5.37485-5.96041 9.05317 9.05317 0 0 0 -2.1364.13399z" fill="#c5d4ef"/><path d="m29.25433 9.97375a2.29527 2.29527 0 0 1 -2.66021-1.97369 1.8994 1.8994 0 0 1 -1.88825 2 2.06289 2.06289 0 0 1 -2.05163-1.524c.01208-.15747.02349-.31524.02349-.476a6.028 6.028 0 0 0 -1.92157-4.42432l-1.11169.174a6.01736 6.01736 0 0 1 3.03326 5.25037c0 .16071-.01141.31848-.02349.476a2.06289 2.06289 0 0 0 2.05163 1.524 1.8994 1.8994 0 0 0 1.88825-2 2.29527 2.29527 0 0 0 2.66021 1.97369 2.04246 2.04246 0 0 0 1.74567-1.99925 6.19268 6.19268 0 0 0 -.03516-.63672 2.04834 2.04834 0 0 1 -1.71051 1.63592z" fill="#aac9f7"/><path d="m9.29413 10.00006a2.25468 2.25468 0 0 1 -2.28174-2 1.946 1.946 0 0 1 -2.26672 1.97369 2.04834 2.04834 0 0 1 -1.71051-1.63592 6.19268 6.19268 0 0 0 -.03516.63672 2.04246 2.04246 0 0 0 1.74567 1.9992 1.946 1.946 0 0 0 2.26672-1.97369 2.25468 2.25468 0 0 0 2.28174 2 2.14392 2.14392 0 0 0 1.74322-.8623 6.26967 6.26967 0 0 1 -.09674-.89582 2.142 2.142 0 0 1 -1.64648.75812z" fill="#aac9f7"/><path d="m48 25.00006a6.99528 6.99528 0 0 1 -6.97473-6.5c-.01178.16583-.02527.33118-.02527.5a7 7 0 1 0 14 0c0-.16882-.01349-.33417-.02527-.5a6.99528 6.99528 0 0 1 -6.97473 6.5z" fill="#bc6926"/><path d="m17 58a6.99528 6.99528 0 0 1 -6.97473-6.5c-.01178.16583-.02527.33118-.02527.5a7 7 0 0 0 14 0c0-.16882-.01349-.33417-.02527-.5a6.99528 6.99528 0 0 1 -6.97473 6.5z" fill="#ddb40a"/><path d="m36 32h26v30h-26z" fill="#47cefc"/><path d="m36 50h26v12h-26z" fill="#6b80f9"/><path d="m16.80371 56a2.729 2.729 0 0 1 -2.959-2.5h2c0 .17627.36425.5.959.5s.958-.32373.958-.5c0-.17236-.166-.28369-1.19141-.52881-1.01952-.24319-2.72557-.65039-2.72557-2.47119a2.729 2.729 0 0 1 2.959-2.5 2.76143 2.76143 0 0 1 2.958 2.5h-2c0-.17627-.36328-.5-.958-.5s-.959.32373-.959.5c0 .17041.165.28125 1.18945.52588 1.02051.24365 2.72754.65137 2.72754 2.47412a2.728 2.728 0 0 1 -2.95801 2.5z" fill="#7c7c7c"/><path d="m42.5 32h6.5a0 0 0 0 1 0 0v7.04546a2.5 2.5 0 0 1 -2.5 2.5h-1.5a2.5 2.5 0 0 1 -2.5-2.5v-7.04546a0 0 0 0 1 0 0z" fill="#f4393d"/><path d="m36 32h6.5a0 0 0 0 1 0 0v7.04546a2.5 2.5 0 0 1 -2.5 2.5h-1.5a2.5 2.5 0 0 1 -2.5-2.5v-7.04546a0 0 0 0 1 0 0z" fill="#eadeca"/><path d="m49 32h6.5a0 0 0 0 1 0 0v7.04546a2.5 2.5 0 0 1 -2.5 2.5h-1.5a2.5 2.5 0 0 1 -2.5-2.5v-7.04546a0 0 0 0 1 0 0z" fill="#eadeca"/><path d="m55.5 32h6.5a0 0 0 0 1 0 0v7.04546a2.5 2.5 0 0 1 -2.5 2.5h-1.5a2.5 2.5 0 0 1 -2.5-2.5v-7.04546a0 0 0 0 1 0 0z" fill="#f4393d"/><path d="m47.80371 23a2.729 2.729 0 0 1 -2.959-2.5h2c0 .17627.36425.5.959.5s.958-.32373.958-.5c0-.17236-.166-.28369-1.19141-.52881-1.01952-.24319-2.72557-.65039-2.72557-2.47119a2.729 2.729 0 0 1 2.959-2.5 2.76143 2.76143 0 0 1 2.958 2.5h-2c0-.17627-.36328-.5-.958-.5s-.959.32373-.959.5c0 .17041.165.28125 1.18945.52588 1.02051.24365 2.72754.65137 2.72754 2.47412a2.728 2.728 0 0 1 -2.95801 2.5z" fill="#b2afad"/><g fill="#ffd700"><path d="m3 16h2v2h-2z"/><path d="m24 35h2v2h-2z"/><path d="m17 26h2v2h-2z"/><path d="m11 37h2v2h-2z"/><path d="m2 31h2v2h-2z"/><path d="m2 60h2v2h-2z"/><path d="m60 1h2v2h-2z"/><path d="m50 6h2v2h-2z"/><path d="m38 4h2v2h-2z"/><path d="m27 20h2v2h-2z"/><circle cx="17" cy="8" r="7"/></g><path d="m17 14a6.99528 6.99528 0 0 1 -6.97473-6.5c-.01178.16583-.02527.33118-.02527.5a7 7 0 0 0 14 0c0-.16882-.01349-.33417-.02527-.5a6.99528 6.99528 0 0 1 -6.97473 6.5z" fill="#ddb40a"/><path d="m16.84522 12a2.75469 2.75469 0 0 1 -3.00049-2.5h2.02805c0 .17627.36937.5.97244.5s.97145-.32373.97145-.5c0-.17236-.16835-.28369-1.20812-.52881-1.03383-.24319-2.76382-.65039-2.76382-2.47119a2.75469 2.75469 0 0 1 3.00049-2.5 2.78752 2.78752 0 0 1 2.99951 2.5h-2.02806c0-.17627-.36838-.5-.97145-.5s-.97244.32373-.97244.5c0 .17041.16736.28125 1.20614.52588 1.03483.24365 2.76581.65137 2.76581 2.47412a2.75373 2.75373 0 0 1 -2.99951 2.5z" fill="#7c7c7c"/></svg>
