<?xml version="1.0"?>
<svg xmlns="http://www.w3.org/2000/svg" viewBox="0 0 64 64" width="512" height="512"><path d="m18 51.6875 2 .3125v-5h-18v15h18v-5l-2 .3125a2.81836 2.81836 0 1 1 0-5.625z" fill="#4c60ed"/><path d="m44 47v5l2-.3125a2.81836 2.81836 0 1 1 0 5.625l-2-.3125v5h18v-15z" fill="#4c60ed"/><path d="m62 11a3 3 0 0 0 -3-3 3 3 0 0 0 0-6h-57v18h20.52448a4.23248 4.23248 0 0 0 -.52448 2c0 1.8847-.16321 3.74152 2 5h3c0-3.31372 2.68628-7 6-7s6 3.68628 6 7h3c2.16327-1.25848 2-3.1153 2-5a4.23248 4.23248 0 0 0 -.52448-2h15.52448a3 3 0 0 0 0-6 3 3 0 0 0 3-3z" fill="#fccc38"/><path d="m10 59h-4a.99974.99974 0 0 1 -1-1v-4h2v3h3z" fill="#5358a1"/><path d="m58 59h-4v-2h3v-3h2v4a.99974.99974 0 0 1 -1 1z" fill="#5358a1"/><path d="m44 30.6875-2 .3125v-5h-18v5l-2-.3125a2.81836 2.81836 0 1 0 0 5.625l2-.3125v5h18v-5l2 .3125a2.81836 2.81836 0 1 0 0-5.625z" fill="#17afdc"/><path d="m27 29h2v2h-2z" fill="#25339e"/><path d="m30 29h2v2h-2z" fill="#25339e"/><g fill="#f9ba08"><path d="m59 8h-14v1h13a2.98528 2.98528 0 0 1 2.55438 4.55438 2.99263 2.99263 0 0 0 -1.55438-5.55438z"/><path d="m59 2h-57v1h56a2.98528 2.98528 0 0 1 2.55438 4.55438 2.99263 2.99263 0 0 0 -1.55438-5.55438z"/><path d="m59 14h-14v1h13a2.98528 2.98528 0 0 1 2.55438 4.55438 2.99263 2.99263 0 0 0 -1.55438-5.55438z"/></g></svg>
