<?xml version="1.0"?>
<svg xmlns="http://www.w3.org/2000/svg" viewBox="0 0 64 64" width="512" height="512"><path d="m52.57141 6h-13.07123v12h7.49982a2 2 0 0 0 0-4h3a2 2 0 0 0 0-4h2.57141a2.24576 2.24576 0 0 0 2.42859-2 2.24572 2.24572 0 0 0 -2.42859-2z" fill="#b8daff"/><path d="m5.42859 6a2.24572 2.24572 0 0 0 -2.42859 2 2.24576 2.24576 0 0 0 2.42859 2h2.57141a2 2 0 0 0 0 4h3a2 2 0 0 0 0 4h7.49982v-12z" fill="#b8daff"/><path d="m3.0033 7.97308a1.977 1.977 0 0 0 .07568.50861 1.717 1.717 0 0 0 .06641.17627 1.96792 1.96792 0 0 0 .08593.182 2.188 2.188 0 0 0 .92322.856 1.96407 1.96407 0 0 1 -.15454-.74503 2 2 0 0 1 2-2h13.19458a6.49512 6.49512 0 0 1 .30524-.95093h-14.07123a2.25068 2.25068 0 0 0 -2.42529 1.97308z" fill="#22c6ff"/><path d="m52 7a2 2 0 0 1 2 2 1.94955 1.94955 0 0 1 -.13519.68726 2.05719 2.05719 0 0 0 1.0683-1.23755 1.955 1.955 0 0 0 .06689-.44971 2.24572 2.24572 0 0 0 -2.42859-2h-13.07123a6.4868 6.4868 0 0 1 .31775 1z" fill="#22c6ff"/><path d="m50.02838 10.038h-5v1h4a2 2 0 0 1 2 2 1.96651 1.96651 0 0 1 -.1579.75495 1.96912 1.96912 0 0 0 -.8421-3.75495z" fill="#22c6ff"/><path d="m47 14h-5v1h4a1.99291 1.99291 0 0 1 1.82019 2.82019 1.99764 1.99764 0 0 0 -.82019-3.82019z" fill="#22c6ff"/><path d="m8.90192 10.98358h4v-1h-5c-.05579 0-.10816.012-.16278.01642h.26086a1.99374 1.99374 0 0 0 -.93341 3.75879 1.97147 1.97147 0 0 1 -.16467-.77521 2 2 0 0 1 2-2z" fill="#22c6ff"/><path d="m11 14h5v1h-4a1.99291 1.99291 0 0 0 -1.82019 2.82019 1.99764 1.99764 0 0 1 .82019-3.82019z" fill="#22c6ff"/><path d="m58.57141 38h-13.07123v12h7.49982a2 2 0 0 0 0-4h3a2 2 0 0 0 0-4h2.57141a2.24576 2.24576 0 0 0 2.42859-2 2.24572 2.24572 0 0 0 -2.42859-2z" fill="#b8daff"/><path d="m11.42859 38a2.24572 2.24572 0 0 0 -2.42859 2 2.24576 2.24576 0 0 0 2.42859 2h2.57141a2 2 0 0 0 0 4h3a2 2 0 0 0 0 4h7.49982v-12z" fill="#b8daff"/><path d="m9.0033 39.97308a1.977 1.977 0 0 0 .07568.50861 1.717 1.717 0 0 0 .06641.17627 1.96792 1.96792 0 0 0 .08593.182 2.188 2.188 0 0 0 .92322.856 1.96407 1.96407 0 0 1 -.15454-.74503 2 2 0 0 1 2-2h13.19458a6.49512 6.49512 0 0 1 .30524-.95093h-14.07123a2.25068 2.25068 0 0 0 -2.42529 1.97308z" fill="#22c6ff"/><path d="m58 39a2 2 0 0 1 2 2 1.94955 1.94955 0 0 1 -.13519.68726 2.05719 2.05719 0 0 0 1.0683-1.23755 1.955 1.955 0 0 0 .06689-.44971 2.24572 2.24572 0 0 0 -2.42859-2h-13.07123a6.4868 6.4868 0 0 1 .31775 1z" fill="#22c6ff"/><path d="m56.02838 42.038h-5v1h4a2 2 0 0 1 2 2 1.96651 1.96651 0 0 1 -.1579.755 1.96912 1.96912 0 0 0 -.8421-3.755z" fill="#22c6ff"/><path d="m53 46h-5v1h4a1.99291 1.99291 0 0 1 1.82019 2.82019 1.99764 1.99764 0 0 0 -.82019-3.82019z" fill="#22c6ff"/><path d="m14.90192 42.98358h4v-1h-5c-.05579 0-.10816.012-.16278.01642h.26086a1.99374 1.99374 0 0 0 -.93341 3.75879 1.97147 1.97147 0 0 1 -.16467-.77521 2 2 0 0 1 2-2z" fill="#22c6ff"/><path d="m17 46h5v1h-4a1.99291 1.99291 0 0 0 -1.82019 2.82019 1.99764 1.99764 0 0 1 .82019-3.82019z" fill="#22c6ff"/><rect fill="#f4393d" height="20" rx="6.49999" width="22" x="18" y="2"/><rect fill="#17afdc" height="20" rx="6.49999" width="22" x="24" y="34"/><path d="m54 25a3.04888 3.04888 0 0 1 -2.43652-1.35937c-.40332-.48438-.56148-.64063-.89848-.64063-.33789 0-.49609.15625-.90039.64063a2.85838 2.85838 0 0 1 -4.86817-.001c-.42574-.51072-.57515-.63963-.89644-.63963v-2a3.04253 3.04253 0 0 1 2.43359 1.36035c.42579.51074.5752.63965.89649.63965.33691 0 .49512-.15625.89844-.64062a2.86152 2.86152 0 0 1 4.87109 0c.4043.48437.5625.64062.90039.64062z" fill="#f4393d"/><path d="m54 30a3.04888 3.04888 0 0 1 -2.43652-1.35937c-.40332-.48438-.56148-.64063-.89848-.64063-.33789 0-.49609.15625-.90039.64063a2.85838 2.85838 0 0 1 -4.86817-.001c-.42574-.51072-.57515-.63963-.89644-.63963v-2a3.04253 3.04253 0 0 1 2.43359 1.36035c.42579.51074.5752.63965.89649.63965.33691 0 .49512-.15625.89844-.64062a2.86152 2.86152 0 0 1 4.87109 0c.4043.48437.5625.64062.90039.64062z" fill="#f4393d"/><path d="m56 23h2v2h-2z" fill="#f4393d"/><path d="m56 28h2v2h-2z" fill="#f4393d"/><path d="m60 23h2v2h-2z" fill="#f4393d"/><path d="m60 28h2v2h-2z" fill="#f4393d"/><path d="m8 25h10v2h-10z" fill="#f4393d"/><path d="m18.66992 57a3.04485 3.04485 0 0 1 -2.43457-1.35937c-.4043-.48438-.5625-.64063-.90035-.64063-.33691 0-.49512.15625-.89844.64063a3.04886 3.04886 0 0 1 -2.43656 1.35937v-2c.33789 0 .49609-.15625.90039-.64062a3.04483 3.04483 0 0 1 2.43461-1.35938 3.04882 3.04882 0 0 1 2.43652 1.35938c.40332.48437.56153.64062.89844.64062.32129 0 .47071-.12891.89649-.63965a3.04253 3.04253 0 0 1 2.43355-1.36035v2c-.32129 0-.4707.12891-.89648.63965a3.04257 3.04257 0 0 1 -2.4336 1.36035z" fill="#17afdc"/><path d="m18.66992 62a3.04485 3.04485 0 0 1 -2.43457-1.35937c-.4043-.48438-.5625-.64063-.90035-.64063-.33691 0-.49512.15625-.89844.64063a3.04886 3.04886 0 0 1 -2.43656 1.35937v-2c.33789 0 .49609-.15625.90039-.64062a3.04483 3.04483 0 0 1 2.43461-1.35938 3.04882 3.04882 0 0 1 2.43652 1.35938c.40332.48437.56153.64062.89844.64062.32129 0 .47071-.12891.89649-.63965a3.04253 3.04253 0 0 1 2.43355-1.36035v2c-.32129 0-.4707.12891-.89648.63965a3.04257 3.04257 0 0 1 -2.4336 1.36035z" fill="#17afdc"/><path d="m8 55h2v2h-2z" fill="#17afdc"/><path d="m8 60h2v2h-2z" fill="#17afdc"/><path d="m4 55h2v2h-2z" fill="#17afdc"/><path d="m4 60h2v2h-2z" fill="#17afdc"/><g fill="#ff8389"><path d="m22 7h5v2h-5z"/><path d="m29 7h2v2h-2z"/><path d="m33 7h3v2h-3z"/><path d="m22 11h8v2h-8z"/><path d="m32 11h4v2h-4z"/><path d="m22 15h5v2h-5z"/><path d="m29 15h2v2h-2z"/><path d="m33 15h3v2h-3z"/></g><path d="m28 39h5v2h-5z" fill="#b6d7fc"/><path d="m35 39h2v2h-2z" fill="#b6d7fc"/><path d="m39 39h3v2h-3z" fill="#b6d7fc"/><path d="m28 43h8v2h-8z" fill="#b6d7fc"/><path d="m38 43h4v2h-4z" fill="#b6d7fc"/><path d="m28 47h5v2h-5z" fill="#b6d7fc"/><path d="m35 47h2v2h-2z" fill="#b6d7fc"/><path d="m39 47h3v2h-3z" fill="#b6d7fc"/><path d="m6.40039 29.7998-4-3a.999.999 0 0 1 0-1.5996l4-3 1.19922 1.5996-2.93261 2.2002 2.93262 2.2002z" fill="#f4393d"/><path d="m46 57h10v2h-10z" fill="#17afdc"/><path d="m57.59961 61.7998-1.19922-1.5996 2.93261-2.2002-2.93262-2.2002 1.19922-1.5996 4 3a.999.999 0 0 1 0 1.5996z" fill="#17afdc"/></svg>
