<?xml version="1.0"?>
<svg xmlns="http://www.w3.org/2000/svg" viewBox="0 0 64 64" width="512" height="512"><path d="m17.91986 55.07227v-2.14454l-1.722-.88763a6.46073 6.46073 0 0 0 -.43048-1.03064l.59118-1.85034a8.03418 8.03418 0 0 0 -1.51764-1.51764l-1.8504.59119a6.45457 6.45457 0 0 0 -1.03064-.43055l-.88763-1.722h-2.14445l-.88764 1.72192a6.45453 6.45453 0 0 0 -1.03064.43054l-1.85034-.59118a8.03274 8.03274 0 0 0 -1.5177 1.51764l.59119 1.8504a6.45457 6.45457 0 0 0 -.43055 1.03064l-1.722.88763v2.14449l1.72192.88764a6.45453 6.45453 0 0 0 .43054 1.03064l-.59118 1.8504a8.03 8.03 0 0 0 1.5176 1.51758l1.8504-.59113a6.45253 6.45253 0 0 0 1.0307.43055l.88763 1.722h2.14447l.88764-1.72192a6.45453 6.45453 0 0 0 1.03064-.43054l1.8504.59118a8.03066 8.03066 0 0 0 1.51764-1.51764l-.59119-1.8504a6.45457 6.45457 0 0 0 .43055-1.03064zm-7.91986 1.92773a3 3 0 1 1 3-3 3 3 0 0 1 -3 3z" fill="#f4393d"/><circle cx="54" cy="54" fill="#fccc38" r="8"/><path d="m34.31055 43h-.08911a3 3 0 1 0 -4.44288 0h-.08911c-2.03759 0-2.68945.7088-2.68945 2.81665v7.18335h2v9h6v-9h2v-7.18335c0-2.10785-.65186-2.81665-2.68945-2.81665z" fill="#24db6a"/><path d="m54 59c-2.05664 0-3.667-1.31738-3.667-3h2c0 .47168.71289 1 1.667 1s1.667-.52832 1.667-1c0-.46973-.37207-.67187-1.89648-1.02832-1.36818-.31934-3.43752-.80368-3.43752-2.97168 0-1.68262 1.61035-3 3.667-3s3.667 1.31738 3.667 3h-2c0-.47168-.71289-1-1.667-1s-1.667.52832-1.667 1c0 .46777.37109.669 1.89355 1.02441 1.37013.32032 3.44045.80469 3.44045 2.97559 0 1.68262-1.61036 3-3.667 3z" fill="#7c7c7c"/><path d="m44 9a6.98513 6.98513 0 0 0 -2.17554.34906c-.86246-4.18106-4.92907-7.34906-9.82446-7.34906s-8.962 3.168-9.82446 7.34906a6.999 6.999 0 1 0 -2.17554 13.65094h24a7 7 0 0 0 0-14z" fill="#17afdc"/><path d="m20 11a6.98513 6.98513 0 0 1 2.17554.34906c.86246-4.18106 4.92907-7.34906 9.82446-7.34906s8.962 3.168 9.82446 7.34906a6.98531 6.98531 0 0 1 9.09601 5.65094 6.98853 6.98853 0 0 0 -9.096-7.65094c-.86247-4.18106-4.92908-7.34906-9.82447-7.34906s-8.962 3.168-9.82446 7.34906a6.96183 6.96183 0 0 0 -9.09601 7.65094 6.99546 6.99546 0 0 1 6.92047-6z" fill="#7de7ff"/><path d="m31.86116 11c-3.48186 0-5.22264 1.5414-6.86116 4a7.89063 7.89063 0 0 0 7.13884 4c3.48187 0 5.22264-1.54141 6.86116-4a7.89061 7.89061 0 0 0 -7.13884-4z" fill="#dbe6fd"/><g fill="#f4393d"><circle cx="32" cy="15" r="4"/><path d="m31 25h2v2h-2z"/><path d="m22 25h2v2h-2z"/><path d="m20 30h2v2h-2z"/><path d="m18 35h2v2h-2z"/><path d="m16 40h2v2h-2z"/><path d="m31 30h2v2h-2z"/><path d="m40 25h2v2h-2z"/><path d="m42 30h2v2h-2z"/><path d="m44 35h2v2h-2z"/><path d="m46 40h2v2h-2z"/></g><path d="m10 49a5 5 0 1 0 5 5 5 5 0 0 0 -5-5zm0 8a3 3 0 1 1 3-3 3 3 0 0 1 -3 3z" fill="#ff6169"/></svg>
