<?xml version="1.0"?>
<svg xmlns="http://www.w3.org/2000/svg" viewBox="0 0 64 64" width="512" height="512"><path d="m62 31.98724c-24.88263-.32275-38.06183-6.76666-38.06183-20.48718 0-2.645.75256-7.15948 2.14734-9.5l-9.03162-.00006c-9.2995 6.11322-15.11572 16.82617-15.11572 26.50006 0 18.50153 21.26648 33.5 47.5 33.5a78.70942 78.70942 0 0 0 12.56183-.99939z" fill="#fcd842"/><path d="m23.91986 23.07227v-2.14454l-1.722-.88763a6.45869 6.45869 0 0 0 -.43048-1.0307l.59118-1.85028a8.0345 8.0345 0 0 0 -1.51764-1.5177l-1.8504.59118a6.461 6.461 0 0 0 -1.03064-.43054l-.88763-1.72192h-2.14445l-.88764 1.72186a6.45158 6.45158 0 0 0 -1.03058.43054l-1.8504-.59118a8.03274 8.03274 0 0 0 -1.5177 1.51764l.59125 1.8504a6.44726 6.44726 0 0 0 -.43061 1.0307l-1.722.88763v2.14447l1.72192.88758a6.44992 6.44992 0 0 0 .43054 1.03064l-.59118 1.85046a8.03179 8.03179 0 0 0 1.5176 1.51758l1.8504-.59119a6.45546 6.45546 0 0 0 1.0307.43061l.88763 1.722h2.14447l.88764-1.722a6.45753 6.45753 0 0 0 1.0307-.43055l1.85034.59119a8.03035 8.03035 0 0 0 1.51764-1.51758l-.59112-1.85046a6.46008 6.46008 0 0 0 .43048-1.03058zm-7.91986 1.21344a2.28571 2.28571 0 1 1 2.28571-2.28571 2.28575 2.28575 0 0 1 -2.28571 2.28571z" fill="#17afdc"/><path d="m35.90985 40.2063v-2.4126l-1.93725-.9986a7.27084 7.27084 0 0 0 -.48426-1.15948l.665-2.0816a9.03891 9.03891 0 0 0 -1.70734-1.70734l-2.08166.665a7.26235 7.26235 0 0 0 -1.15948-.48432l-.9986-1.93725h-2.4125l-.99859 1.93713a7.25844 7.25844 0 0 0 -1.15943.48438l-2.08166-.6651a9.03779 9.03779 0 0 0 -1.7074 1.7074l.6651 2.08166a7.26028 7.26028 0 0 0 -.48438 1.15948l-1.93725.9986v2.41254l1.93719.99859a7.26463 7.26463 0 0 0 .48432 1.15943l-.665 2.08172a9.03471 9.03471 0 0 0 1.70727 1.70728l2.08167-.665a7.26093 7.26093 0 0 0 1.15954.48438l.9986 1.93725h2.41254l.99859-1.93719a7.26231 7.26231 0 0 0 1.15949-.48438l2.08166.6651a9.0354 9.0354 0 0 0 1.7073-1.70738l-.665-2.08172a7.26491 7.26491 0 0 0 .48432-1.15942zm-8.90985 2.1687a3.375 3.375 0 1 1 3.375-3.375 3.375 3.375 0 0 1 -3.375 3.375z" fill="#11d156"/><g fill="#f4393d"><path d="m59.88983 49.47437v-2.94874l-2.36774-1.22052a8.88243 8.88243 0 0 0 -.59191-1.41711l.81286-2.54419a11.04832 11.04832 0 0 0 -2.08673-2.08681l-2.54431.81293a8.88208 8.88208 0 0 0 -1.41711-.59205l-1.22052-2.36767h-2.94867l-1.22046 2.36761a8.87074 8.87074 0 0 0 -1.41712.592l-2.54425-.81292a11.04566 11.04566 0 0 0 -2.08679 2.08673l.81292 2.54437a8.86525 8.86525 0 0 0 -.592 1.41711l-2.3678 1.22052v2.94867l2.36767 1.2204a8.87527 8.87527 0 0 0 .592 1.41718l-.81287 2.54431a11.04324 11.04324 0 0 0 2.08667 2.08667l2.54431-.81281a8.8682 8.8682 0 0 0 1.41717.592l1.22052 2.3678h2.94863l1.22052-2.36767a8.87308 8.87308 0 0 0 1.41712-.59205l2.54425.81293a11.0448 11.0448 0 0 0 2.08681-2.08681l-.81287-2.54431a8.88023 8.88023 0 0 0 .592-1.417zm-10.88983 2.92563a4.4 4.4 0 1 1 4.4-4.4 4.4 4.4 0 0 1 -4.4 4.4z"/><path d="m50.92773 22.80078c-9.09765-.6543-17.12988-4.64453-19.98925-9.92773a9.33445 9.33445 0 0 1 .1875-9.3584l1.748.9707a7.32879 7.32879 0 0 0 -.17578 7.43555c2.5459 4.707 9.92969 8.27734 18.374 8.88574z"/><path d="m53 21h2v2h-2z"/><path d="m53.53027 27.84766-1.06054-1.69532 6.64355-4.15234-6.64355-4.15234 1.06054-1.69532 8 5a.9997.9997 0 0 1 0 1.69532z"/></g><path d="m49 42a6 6 0 1 0 6 6 6 6 0 0 0 -6-6zm0 10.4a4.4 4.4 0 1 1 4.4-4.4 4.4 4.4 0 0 1 -4.4 4.4z" fill="#ff888e"/><path d="m27 34a5 5 0 1 0 5 5 5 5 0 0 0 -5-5zm0 8.375a3.375 3.375 0 1 1 3.375-3.375 3.375 3.375 0 0 1 -3.375 3.375z" fill="#06fc58"/><path d="m16 18a4 4 0 1 0 4 4 4 4 0 0 0 -4-4zm0 6.28571a2.28571 2.28571 0 1 1 2.28571-2.28571 2.28575 2.28575 0 0 1 -2.28571 2.28571z" fill="#69e3ff"/></svg>
