<?xml version="1.0"?>
<svg xmlns="http://www.w3.org/2000/svg" viewBox="0 0 64 64" width="512" height="512"><circle cx="52" cy="12" fill="#fc9038" r="10"/><circle cx="12" cy="20" fill="#f9d264" r="10"/><path d="m32 38c-16.01624 0-29 10.74518-29 24h58c0-13.25482-12.98376-24-29-24z" fill="#51ddf4"/><path d="m32.25635 22.97412a2 2 0 1 0 -.5127 0l-4.02319 15.288a35.06234 35.06234 0 0 1 8.55908 0z" fill="#f4393d"/><path d="m11.99967 27a7 7 0 0 1 0-14v2a4.99541 4.99541 0 1 0 4.93067 4.166l1.97265-.332a7.00611 7.00611 0 0 1 -6.90332 8.166z" fill="#efac03"/><path d="m52 19v-2a4.99547 4.99547 0 1 0 -4.93066-4.166l-1.97266.332a7.00061 7.00061 0 1 1 6.90332 5.834z" fill="#c95f00"/><path d="m37 19h2v2h-2z" fill="#ff7f00"/><path d="m26 15h2v2h-2z" fill="#fccc38"/><path d="m21 45h8v2h-8z" fill="#82827d"/><path d="m35 45h8v2h-8z" fill="#82827d"/><path d="m11 56a2 2 0 0 1 2-2h5a2 2 0 0 0 2-2 2 2 0 0 0 -2-2h-11.11066a20.82384 20.82384 0 0 0 -3.88934 12h12a2 2 0 0 0 2-2 2 2 0 0 0 -2-2h-2a2 2 0 0 1 -2-2z" fill="#24db6a"/><path d="m53 56a2 2 0 0 0 -2-2h-5a2 2 0 0 1 -2-2 2 2 0 0 1 2-2h11.11066a20.82384 20.82384 0 0 1 3.88934 12h-12a2 2 0 0 1 -2-2 2 2 0 0 1 2-2h2a2 2 0 0 0 2-2z" fill="#24db6a"/><path d="m16.92448 15.82031-1.51563-1.30664-3.02478 3.50824a1.96508 1.96508 0 0 0 -.2174-.02191 2.00262 2.00262 0 1 0 1.83606 1.20905z" fill="#efac03"/><path d="m52 10a2 2 0 0 0 -2 2 1.97947 1.97947 0 0 0 .11761.651l-3.04241 3.52869 1.51562 1.30664 3.03818-3.52374a1.99878 1.99878 0 1 0 .371-3.96259z" fill="#c95f00"/></svg>
